<?xml version="1.0" encoding="UTF-8"?>
<svg id="Layer_1" data-name="Layer 1" xmlns="http://www.w3.org/2000/svg" viewBox="0 0 321.03 307.82">
  <defs>
    <style>
      .cls-1 {
        fill: #fff;
      }

      .cls-2 {
        fill: #ffce07;
      }

      .cls-3 {
        fill: none;
        stroke: #ffce07;
        stroke-miterlimit: 10;
        stroke-width: 4px;
      }
    </style>
  </defs>
  <g>
    <circle class="cls-1" cx="157.22" cy="155.23" r="102.27"/>
    <path class="cls-1" d="M41.43,261.41h-4.48c-.69,0-1.25-.57-1.25-1.26l.12-12.53.35-1.45c.12-.49.18-.99.18-1.49l1.33-197.04c0-.68.56-1.24,1.25-1.24h.53c.68,0,1.24.55,1.25,1.24l1.33,197.06c0,.51.06,1.01.18,1.5l.35,1.45.12,12.51c0,.69-.55,1.26-1.25,1.26Z"/>
    <path class="cls-1" d="M29.27,261.41h-4.48c-.69,0-1.25-.57-1.25-1.26l.12-12.53.35-1.45c.12-.49.18-.99.18-1.49l1.33-197.04c0-.68.56-1.24,1.25-1.24h.53c.68,0,1.24.55,1.25,1.24l1.33,197.06c0,.51.06,1.01.18,1.5l.35,1.45.12,12.51c0,.69-.55,1.26-1.25,1.26Z"/>
    <circle class="cls-3" cx="157.22" cy="155.23" r="72.73"/>
  </g>
  <g>
    <path class="cls-2" d="M125.94,175.86c0,.7-.55,1.25-1.25,1.25h-1.75c-.7,0-1.3-.55-1.3-1.25v-31c0-1.95-.35-3.35-1.2-4.25-.75-.85-1.8-1.2-2.9-1.2s-2.1.35-2.9,1.2c-.9.9-1.15,2.3-1.15,4.25v31c0,.7-.55,1.25-1.25,1.25h-1.75c-.7,0-1.3-.55-1.3-1.25v-38.5c0-.7.2-1.05.55-1.3.3-.25.65-.35,1.05-.35.5,0,.95.2,1.4.5l.2.15c.4.3.65.4,1.1.4.4,0,1-.4,2.05-.75.8-.25,1.8-.5,2.8-.5,1.5,0,3.15.45,4.9,2,.15.2.4.3.7.3.25,0,.5-.1.8-.3,1.75-1.55,3.65-2,5.8-2,1.8,0,4.1.8,5.5,2.35,1.3,1.4,2.35,3.4,2.35,6.85v31.15c0,.7-.55,1.25-1.25,1.25h-1.75c-.7,0-1.3-.55-1.3-1.25v-31c0-1.95-.35-3.35-1.2-4.25-.75-.85-1.8-1.2-2.9-1.2s-2.1.35-2.9,1.2c-.9.9-1.15,2.3-1.15,4.25v31Z"/>
    <path class="cls-2" d="M145.89,177.11c-.7,0-1.3-.55-1.3-1.25v-38.75c0-.7.6-1.25,1.3-1.25h10.5c.7,0,1.25.55,1.25,1.25v1.6c0,.7-.55,1.1-1.25,1.25h-6.4c-.65,0-1.1.5-1.1,1.15v11.95c0,.65.45,1.15,1.1,1.15h6.4c.7,0,1.25.55,1.25,1.25v1.6c0,.7-.55,1.25-1.25,1.25h-6.4c-.65,0-1.1.5-1.1,1.15v12.4c0,.65.45,1.15,1.1,1.15h6.4c.7,0,1.25.55,1.25,1.25v1.6c0,.7-.55,1.25-1.25,1.25h-10.5Z"/>
    <path class="cls-2" d="M175.84,145.16c0-2.05-.35-3.55-1.25-4.5-.8-.85-1.9-1.25-3.05-1.25s-2.25.4-3.05,1.25c-.95.95-1.25,2.45-1.25,4.5v30.7c0,.7-.55,1.25-1.25,1.25h-1.75c-.7,0-1.3-.55-1.3-1.25v-38.5c0-.7.2-1.05.55-1.3.3-.25.65-.35,1.05-.35.5,0,.95.2,1.4.5l.2.15c.4.3.65.4,1.1.4.4,0,1.05-.35,2.1-.7.8-.25,1.95-.55,3.15-.55,1.85,0,3.95.75,5.4,2.3,1.35,1.4,2.25,3.5,2.25,6.95v31.1c0,.7-.55,1.25-1.25,1.25h-1.75c-.7,0-1.3-.55-1.3-1.25v-30.7Z"/>
    <path class="cls-2" d="M199.24,137.1c0-.7.6-1.25,1.3-1.25h1.75c.7,0,1.25.55,1.25,1.25v31.05c0,3.15-.8,5.1-2.15,6.6-1.45,1.65-3.7,2.7-6.45,2.7s-4.95-1.05-6.45-2.7c-1.3-1.5-2.15-3.45-2.15-6.6v-31.05c0-.7.6-1.25,1.3-1.25h1.75c.7,0,1.25.55,1.25,1.25v30.7c0,2.05.3,3.55,1.25,4.5.8.85,1.85,1.25,3.05,1.25s2.3-.4,3.1-1.25c.9-.95,1.2-2.45,1.2-4.5v-30.7Z"/>
  </g>
</svg>