<?xml version="1.0" encoding="UTF-8"?>
<svg id="Layer_1" data-name="Layer 1" xmlns="http://www.w3.org/2000/svg" viewBox="0 0 321.03 307.82">
  <defs>
    <style>
      .cls-1 {
        fill: none;
        stroke: #ed1c24;
        stroke-miterlimit: 10;
        stroke-width: 3px;
      }

      .cls-2 {
        fill: #fff;
      }

      .cls-3 {
        fill: #ed1c24;
      }
    </style>
  </defs>
  <g>
    <rect class="cls-2" x="88.87" y="44.42" width="141.36" height="218.97"/>
    <path class="cls-1" d="M231.19,51.87l-66.49,29.52c-2.97,1.32-6.36,1.32-9.33,0l-66.49-29.52"/>
  </g>
  <g>
    <path class="cls-3" d="M128.98,179.72c-1.55-1.65-2.7-3.2-2.7-7.25v-23.35c0-3.15.85-5.1,2.15-6.6,1.5-1.65,3.7-2.7,6.45-2.7s5,1.05,6.45,2.7c1.35,1.5,2.15,3.45,2.15,6.6v2.65c0,.7-.55,1.25-1.25,1.25h-1.75c-.7,0-1.3-.55-1.3-1.25v-2.3c0-2.05-.3-3.55-1.2-4.5-.8-.85-1.95-1.25-3.1-1.25s-2.25.4-3.05,1.25c-.95.95-1.25,2.45-1.25,4.5v22.65c0,2.05.3,3.55,1.25,4.5.8.85,1.85,1.25,3.05,1.25s2.3-.4,3.1-1.25c.9-.95,1.2-2.45,1.2-4.5v-6.9c0-.6-.4-1.1-1.1-1.1h-1.6c-.7,0-1.25-.55-1.25-1.25v-1.65c0-.7.55-1.25,1.25-1.25h5.75c.7,0,1.25.55,1.25,1.25v18.8c0,.7-.2,1.05-.5,1.3-.3.25-.65.35-1.1.35-.5,0-.95-.25-1.35-.55l-.2-.15c-.4-.3-.65-.4-1.15-.4-.4,0-1.05.35-1.95.65s-1.8.55-3.05.55c-1.95,0-4.05-.9-5.2-2.05Z"/>
    <path class="cls-3" d="M154.43,180.17c0,.7-.55,1.25-1.25,1.25h-1.75c-.7,0-1.3-.55-1.3-1.25v-38.75c0-.7.6-1.25,1.3-1.25h1.75c.7,0,1.25.55,1.25,1.25v38.75Z"/>
    <path class="cls-3" d="M161.08,141.42c0-.7.6-1.25,1.3-1.25h10.5c.7,0,1.25.55,1.25,1.25v1.6c0,.7-.55,1.1-1.25,1.25h-6.4c-.65,0-1.1.5-1.1,1.15v13.4c0,.65.45,1.15,1.1,1.15h6.4c.7,0,1.25.55,1.25,1.25v1.6c0,.7-.55,1.25-1.25,1.25h-6.4c-.65,0-1.1.5-1.1,1.15v14.95c0,.7-.55,1.25-1.25,1.25h-1.75c-.7,0-1.3-.55-1.3-1.25v-38.75Z"/>
    <path class="cls-3" d="M194.23,140.17c.7,0,1.25.55,1.25,1.25v1.6c0,.7-.55,1.25-1.25,1.25h-4.4c-.65,0-1.1.55-1.1,1.2v34.7c0,.7-.55,1.25-1.3,1.25h-1.7c-.75,0-1.3-.55-1.3-1.25v-34.7c0-.65-.45-1.2-1.1-1.2h-4.35c-.7,0-1.3-.55-1.3-1.25v-1.6c0-.7.6-1.25,1.3-1.25h15.25Z"/>
  </g>
</svg>