<?xml version="1.0" encoding="UTF-8"?>
<svg id="Layer_1" xmlns="http://www.w3.org/2000/svg" version="1.1" viewBox="0 0 321 307.8">
  <!-- Generator: Adobe Illustrator 30.3.0, SVG Export Plug-In . SVG Version: 2.1.3 Build 182)  -->
  <defs>
    <style>
      .st0 {
        fill: #ec008c;
      }

      .st1 {
        fill: #fff;
      }

      .st2 {
        fill: none;
        stroke: #ec008c;
        stroke-miterlimit: 10;
        stroke-width: 3px;
      }
    </style>
  </defs>
  <rect class="st1" x="94.6" y="54.5" width="128.4" height="198.9"/>
  <path class="st2" d="M223.8,61.2l-60.4,26.8c-2.7,1.2-5.8,1.2-8.5,0l-60.4-26.8"/>
  <g>
    <path class="st0" d="M114.7,155.4c-1.4-1.5-2.5-2.9-2.5-6.6v-21.2c0-2.9.8-4.6,2-6,1.4-1.5,3.4-2.5,5.9-2.5s4.5,1,5.9,2.5c1.2,1.4,2,3.1,2,6v2.4c0,.6-.5,1.1-1.1,1.1h-1.6c-.6,0-1.2-.5-1.2-1.1v-2.1c0-1.9-.3-3.2-1.1-4.1-.7-.8-1.8-1.1-2.8-1.1s-2,.4-2.8,1.1c-.9.9-1.1,2.2-1.1,4.1v20.6c0,1.9.3,3.2,1.1,4.1.7.8,1.7,1.1,2.8,1.1s2.1-.4,2.8-1.1c.8-.9,1.1-2.2,1.1-4.1v-6.3c0-.5-.4-1-1-1h-1.5c-.6,0-1.1-.5-1.1-1.1v-1.5c0-.6.5-1.1,1.1-1.1h5.2c.6,0,1.1.5,1.1,1.1v17.1c0,.6-.2,1-.5,1.2s-.6.3-1,.3-.9-.2-1.2-.5h-.2c-.4-.4-.6-.5-1-.5s-1,.3-1.8.6c-.8.3-1.6.5-2.8.5-1.8,0-3.7-.8-4.7-1.9Z"/>
    <path class="st0" d="M137.8,155.8c0,.6-.5,1.1-1.1,1.1h-1.6c-.6,0-1.2-.5-1.2-1.1v-35.2c0-.6.5-1.1,1.2-1.1h1.6c.6,0,1.1.5,1.1,1.1v35.2Z"/>
    <path class="st0" d="M143.9,120.6c0-.6.5-1.1,1.2-1.1h9.5c.6,0,1.1.5,1.1,1.1v1.5c0,.6-.5,1-1.1,1.1h-5.8c-.6,0-1,.5-1,1v12.2c0,.6.4,1,1,1h5.8c.6,0,1.1.5,1.1,1.1v1.5c0,.6-.5,1.1-1.1,1.1h-5.8c-.6,0-1,.5-1,1v13.6c0,.6-.5,1.1-1.1,1.1h-1.6c-.6,0-1.2-.5-1.2-1.1v-35.2Z"/>
    <path class="st0" d="M174,119.4c.6,0,1.1.5,1.1,1.1v1.5c0,.6-.5,1.1-1.1,1.1h-4c-.6,0-1,.5-1,1.1v31.5c0,.6-.5,1.1-1.2,1.1h-1.5c-.7,0-1.2-.5-1.2-1.1v-31.5c0-.6-.4-1.1-1-1.1h-4c-.6,0-1.2-.5-1.2-1.1v-1.5c0-.6.5-1.1,1.2-1.1h13.8Z"/>
    <path class="st0" d="M197.4,145.2c.6,0,1-.5,1-1.1v-7.3c0-.6.5-1.1,1.2-1.1h1.6c.6,0,1.1.5,1.1,1.1v7.3c0,.6.4,1.1,1,1.1h1.6c.6,0,1.2.5,1.2,1.1v1.5c0,.6-.5,1.1-1.2,1.1h-1.6c-.6,0-1,.5-1,1v5.7c0,.6-.5,1.1-1.1,1.1h-1.6c-.6,0-1.2-.5-1.2-1.1v-5.7c0-.6-.4-1-1-1h-7.9c-.6,0-1-.5-1-1.1v-1.7c0-.8.4-2.5,1.8-8.4l4.2-17.4c.2-.9.6-1.2,1.5-1.2h1.2c.6,0,1.2.4,1.2,1.1,0,1-.3,2.4-3.4,14.4l-.4,1.6c-.8,3.2-1.9,7.4-1.9,8.1,0,.5.5.8,1.1.8h3.5Z"/>
    <path class="st0" d="M134,210.3c0,.6-.5,1.1-1.1,1.1h-1.6c-.6,0-1.2-.5-1.2-1.1v-28.2c0-1.8-.3-3-1.1-3.9-.7-.8-1.6-1.1-2.6-1.1s-1.9.3-2.6,1.1c-.8.8-1,2.1-1,3.9v28.2c0,.6-.5,1.1-1.1,1.1h-1.6c-.6,0-1.2-.5-1.2-1.1v-35c0-.6.2-1,.5-1.2.3-.2.6-.3,1-.3s.9.2,1.3.5h.2c.4.4.6.5,1,.5s.9-.4,1.9-.7c.7-.2,1.6-.5,2.5-.5,1.4,0,2.9.4,4.5,1.8.1.2.4.3.6.3s.5,0,.7-.3c1.6-1.4,3.3-1.8,5.3-1.8s3.7.7,5,2.1c1.2,1.3,2.1,3.1,2.1,6.2v28.3c0,.6-.5,1.1-1.1,1.1h-1.6c-.6,0-1.2-.5-1.2-1.1v-28.2c0-1.8-.3-3-1.1-3.9-.7-.8-1.6-1.1-2.6-1.1s-1.9.3-2.6,1.1c-.8.8-1,2.1-1,3.9v28.2Z"/>
    <path class="st0" d="M162.7,175.1c0-.6.5-1.1,1.2-1.1h1.6c.6,0,1.1.5,1.1,1.1v28.2c0,2.9-.7,4.6-2,6-1.3,1.5-3.4,2.5-5.9,2.5s-4.5-1-5.9-2.5c-1.2-1.4-2-3.1-2-6v-28.2c0-.6.5-1.1,1.2-1.1h1.6c.6,0,1.1.5,1.1,1.1v27.9c0,1.9.3,3.2,1.1,4.1.7.8,1.7,1.1,2.8,1.1s2.1-.4,2.8-1.1c.8-.9,1.1-2.2,1.1-4.1v-27.9Z"/>
    <path class="st0" d="M187.4,210.3c0,.6-.5,1.1-1.1,1.1h-1.6c-.6,0-1.2-.5-1.2-1.1v-28.2c0-1.8-.3-3-1.1-3.9-.7-.8-1.6-1.1-2.6-1.1s-1.9.3-2.6,1.1c-.8.8-1,2.1-1,3.9v28.2c0,.6-.5,1.1-1.1,1.1h-1.6c-.6,0-1.2-.5-1.2-1.1v-35c0-.6.2-1,.5-1.2.3-.2.6-.3,1-.3s.9.2,1.3.5h.2c.4.4.6.5,1,.5s.9-.4,1.9-.7c.7-.2,1.6-.5,2.5-.5,1.4,0,2.9.4,4.4,1.8.1.2.4.3.6.3s.5,0,.7-.3c1.6-1.4,3.3-1.8,5.3-1.8s3.7.7,5,2.1c1.2,1.3,2.1,3.1,2.1,6.2v28.3c0,.6-.5,1.1-1.1,1.1h-1.6c-.6,0-1.2-.5-1.2-1.1v-28.2c0-1.8-.3-3-1.1-3.9-.7-.8-1.6-1.1-2.6-1.1s-1.9.3-2.6,1.1c-.8.8-1,2.1-1,3.9v28.2Z"/>
  </g>
</svg>