<?xml version="1.0" encoding="UTF-8"?>
<svg id="Layer_1" data-name="Layer 1" xmlns="http://www.w3.org/2000/svg" viewBox="0 0 321.03 307.82">
  <defs>
    <style>
      .cls-1 {
        fill: #ffce07;
      }
    </style>
  </defs>
  <g>
    <path class="cls-1" d="M153.19,78.89c0-.7.6-1.25,1.3-1.25h1.75c.7,0,1.25.55,1.25,1.25v31.05c0,3.15-.8,5.1-2.15,6.6-1.45,1.65-3.7,2.7-6.45,2.7s-4.95-1.05-6.45-2.7c-1.3-1.5-2.15-3.45-2.15-6.6v-31.05c0-.7.6-1.25,1.3-1.25h1.75c.7,0,1.25.55,1.25,1.25v30.7c0,2.05.3,3.55,1.25,4.5.8.85,1.85,1.25,3.05,1.25s2.3-.4,3.1-1.25c.9-.95,1.2-2.45,1.2-4.5v-30.7Z"/>
    <path class="cls-1" d="M164.99,118.89c-.7,0-1.3-.55-1.3-1.25v-38.75c0-.7.6-1.25,1.3-1.25h7.3c2.75,0,5,1.05,6.45,2.7,1.35,1.5,2.15,3.45,2.15,6.6v5.85c0,3.15-.85,5.1-2.2,6.6-1.45,1.65-3.65,2.7-6.4,2.7h-3.2c-.65,0-1.1.5-1.1,1.15v14.4c0,.7-.55,1.25-1.25,1.25h-1.75ZM176.59,87.44c0-2.05-.25-3.55-1.15-4.5-.8-.85-2-1.25-3.15-1.25h-3.05c-.85,0-1.25.35-1.25,1.1v14.15c0,.75.35,1.1,1.1,1.1h3.25c1.15,0,2.25-.55,3.05-1.4.9-.95,1.2-2.45,1.2-4.5v-4.7Z"/>
    <path class="cls-1" d="M141.51,178.89c-.7,0-1.3-.55-1.3-1.25v-38.75c0-.7.6-1.25,1.3-1.25h7.35c2.75,0,4.95,1.05,6.4,2.7,1.35,1.5,2.15,3.45,2.15,6.6v22.65c0,3.15-.85,5.1-2.2,6.6-1.45,1.65-3.65,2.7-6.4,2.7h-7.3ZM144.51,173.74c0,.75.35,1.1,1.1,1.1h3.25c1.15,0,2.25-.4,3.05-1.25.9-.95,1.2-2.45,1.2-4.5v-21.65c0-2.05-.25-3.55-1.15-4.5-.8-.85-1.9-1.25-3.05-1.25h-3.15c-.85,0-1.25.35-1.25,1.1v30.95Z"/>
    <path class="cls-1" d="M169.01,161.54c-.6,0-1.1.5-1.1,1.1v15c0,.7-.55,1.25-1.25,1.25h-1.75c-.7,0-1.3-.55-1.3-1.25v-31.05c0-3.15.85-5.1,2.15-6.6,1.5-1.65,3.7-2.7,6.45-2.7s4.95,1.05,6.45,2.7c1.3,1.5,2.15,3.45,2.15,6.6v31.05c0,.7-.6,1.25-1.3,1.25h-1.75c-.7,0-1.25-.55-1.25-1.25v-15c0-.6-.5-1.1-1.1-1.1h-6.4ZM175.41,157.54c.6,0,1.1-.5,1.1-1.1v-9.5c0-2.05-.3-3.55-1.25-4.5-.8-.85-1.85-1.25-3.05-1.25s-2.25.4-3.05,1.25c-.95.95-1.25,2.45-1.25,4.5v9.5c0,.6.5,1.1,1.1,1.1h6.4Z"/>
    <path class="cls-1" d="M158.99,197.64c.7,0,1.25.55,1.25,1.25v1.6c0,.7-.55,1.25-1.25,1.25h-4.4c-.65,0-1.1.55-1.1,1.2v34.7c0,.7-.55,1.25-1.3,1.25h-1.7c-.75,0-1.3-.55-1.3-1.25v-34.7c0-.65-.45-1.2-1.1-1.2h-4.35c-.7,0-1.3-.55-1.3-1.25v-1.6c0-.7.6-1.25,1.3-1.25h15.25Z"/>
    <path class="cls-1" d="M166.04,238.89c-.7,0-1.3-.55-1.3-1.25v-38.75c0-.7.6-1.25,1.3-1.25h10.5c.7,0,1.25.55,1.25,1.25v1.6c0,.7-.55,1.1-1.25,1.25h-6.4c-.65,0-1.1.5-1.1,1.15v11.95c0,.65.45,1.15,1.1,1.15h6.4c.7,0,1.25.55,1.25,1.25v1.6c0,.7-.55,1.25-1.25,1.25h-6.4c-.65,0-1.1.5-1.1,1.15v12.4c0,.65.45,1.15,1.1,1.15h6.4c.7,0,1.25.55,1.25,1.25v1.6c0,.7-.55,1.25-1.25,1.25h-10.5Z"/>
  </g>
  <path class="cls-1" d="M121.95,48.07l76.62-.09c6.5.84,11.48,4.83,13.6,11.01,1.32,62.11.19,124.51.57,186.72-1.54,7.98-7.21,12.89-15.29,13.53-23.91,1.89-50.28-1.45-74.45-.03-6.77-.67-11.93-4.68-14.14-11.07-1.32-62.11-.19-124.51-.57-186.72,1.22-7.05,6.55-12.39,13.66-13.35ZM121.94,54.66c-3.57.6-6.63,3.73-7.06,7.35l.3,184.62c1.39,3.49,4.02,5.58,7.82,5.99,24.02-1.59,50.76,2.11,74.46.02,4.14-.36,6.83-2.13,8.4-6.01V60.5c-1.77-6.77-11.92-6.7-17.46-6.02-3.66.45-1.58,6.39-5.98,7.22l-42.62.03c-4.16-.48-4.16-3.18-4.76-6.64l-.71-.49c-3.91.16-8.58-.57-12.38.07Z"/>
</svg>