<?xml version="1.0" encoding="UTF-8"?>
<svg id="Layer_1" xmlns="http://www.w3.org/2000/svg" version="1.1" viewBox="0 0 515.7 498.7">
  <!-- Generator: Adobe Illustrator 30.3.0, SVG Export Plug-In . SVG Version: 2.1.3 Build 182)  -->
  <defs>
    <style>
      .st0 {
        fill: #ec008c;
      }

      .st1 {
        fill: #ffd300;
      }
    </style>
  </defs>
  <path class="st1" d="M219.6,59.2c64.3-25,133.7-14,186.1,23.1l-119.1,163,197.9,40c-13.6,62.7-57.5,117.6-121.8,142.6-101.8,39.5-216.4-11-256-112.9-39.5-101.8,11-216.4,112.9-256Z"/>
  <path class="st0" d="M143,38.1l-27.4,97c-.9,3.1-2.8,5.7-5.4,7.5l-83.6,56.4c-7.8,5.2-8,16.6-.4,22.1l72.8,52.6c7.6,5.5,18.3,1.8,20.9-7.3l27.4-97c.9-3.1,2.8-5.7,5.4-7.5l83.6-56.4c7.8-5.2,8-16.6.4-22.1l-72.8-52.6c-7.6-5.5-18.3-1.8-20.9,7.3Z"/>
</svg>