<?xml version="1.0" encoding="UTF-8"?>
<svg id="Layer_1" data-name="Layer 1" xmlns="http://www.w3.org/2000/svg" viewBox="0 0 301.52 158.97">
  <defs>
    <style>
      .cls-1 {
        fill: #fff;
      }

      .cls-2 {
        fill: #ec008c;
      }
    </style>
  </defs>
  <g>
    <path class="cls-2" d="M41.07,87.69c0-.55.47-.98,1.02-.98h1.37c.55,0,.98.43.98.98v2.39c0,2.47-.63,4-1.68,5.17-1.14,1.29-2.9,2.12-5.05,2.12s-3.88-.82-5.06-2.12c-1.02-1.18-1.69-2.7-1.69-5.17v-18.3c0-2.47.67-4,1.69-5.17,1.18-1.29,2.9-2.12,5.06-2.12s3.92.82,5.05,2.12c1.06,1.17,1.68,2.7,1.68,5.17v2.08c0,.55-.43.98-.98.98h-1.37c-.55,0-1.02-.43-1.02-.98v-1.8c0-1.61-.23-2.78-.94-3.53-.63-.67-1.53-.98-2.43-.98s-1.76.31-2.39.98c-.74.74-.98,1.92-.98,3.53v17.75c0,1.61.24,2.78.98,3.53.63.67,1.45.98,2.39.98s1.8-.31,2.43-.98c.71-.74.94-1.92.94-3.53v-2.12Z"/>
    <path class="cls-2" d="M62.19,90.08c0,2.47-.63,4-1.65,5.17-1.14,1.29-2.82,2.12-4.94,2.12s-3.8-.82-4.94-2.12c-1.02-1.18-1.65-2.7-1.65-5.17v-10.85c0-2.47.63-4,1.65-5.17,1.14-1.29,2.82-2.12,4.94-2.12s3.8.82,4.94,2.12c1.02,1.18,1.65,2.7,1.65,5.17v10.85ZM52.32,89.8c0,1.61.24,2.78.94,3.53.63.67,1.45.98,2.35.98s1.72-.31,2.35-.98c.71-.74.94-1.92.94-3.53v-10.31c0-1.61-.23-2.78-.94-3.53-.63-.67-1.45-.98-2.35-.98s-1.72.31-2.35.98c-.71.74-.94,1.92-.94,3.53v10.31Z"/>
    <path class="cls-2" d="M76.85,79.5c0-1.61-.23-2.78-.94-3.53-.63-.67-1.45-.98-2.35-.98s-1.72.31-2.35.98c-.71.74-.94,1.92-.94,3.53v16.61c0,.55-.43.98-.98.98h-1.33c-.55,0-.98-.43-.98-.98v-22.73c0-.55.16-.82.39-1.02.23-.2.51-.27.82-.27.39,0,.74.2,1.06.43l.16.12c.31.24.51.31.86.31.31,0,.82-.31,1.61-.59.63-.2,1.49-.43,2.43-.43,1.41,0,2.98.59,4.11,1.8,1.02,1.1,1.72,2.74,1.72,5.45v16.93c0,.55-.43.98-.98.98h-1.33c-.55,0-.98-.43-.98-.98v-16.61Z"/>
    <path class="cls-2" d="M83.83,75.3c-.55,0-.98-.43-.98-.98v-1.14c0-.55.43-.98.98-.98h1.45c.51,0,.86-.43.86-.94v-2.74c0-.55.43-.98.98-.98h1.33c.55,0,.98.43.98.98v2.74c0,.51.35.94.86.94h2.7c.55,0,.98.43.98.98v1.14c0,.55-.43.98-.98.98h-2.7c-.51,0-.86.39-.86.9v15.79c0,.74.2,1.25.51,1.53.23.23.71.47,1.25.47h1.8c.55,0,.98.43.98.98v1.14c0,.55-.43.98-.98.98h-1.33c-2.12,0-3.49-.43-4.39-1.41-.74-.82-1.14-1.96-1.14-3.84v-15.63c0-.51-.35-.9-.86-.9h-1.45Z"/>
    <path class="cls-2" d="M109.73,95.92c0,.55-.16.82-.39,1.02-.24.2-.51.27-.82.27-.39,0-.74-.16-1.06-.39l-.16-.12c-.31-.24-.51-.31-.86-.31-.31,0-.82.31-1.53.55-.67.23-1.33.43-2.27.43-3.88,0-6.19-3.33-6.19-7.25v-.63c0-2.27.94-4.43,2.66-5.68.98-.75,2.55-1.18,4.23-1.18h2.23c.51,0,.86-.39.86-.9v-2.23c0-1.61-.23-2.78-.94-3.53-.63-.67-1.45-.98-2.35-.98s-1.72.31-2.35.98c-.63.67-.94,1.76-.94,3.13v.04c0,.55-.43.98-.98.98h-1.33c-.55,0-.98-.43-.98-.98v-.27c0-2.23.67-3.68,1.65-4.82,1.14-1.29,2.82-2.12,4.94-2.12s3.8.82,4.94,2.12c1.02,1.18,1.65,2.7,1.65,5.17v16.69ZM99.86,90.47c0,1.1.27,1.96.78,2.66.51.71,1.29,1.18,2.51,1.18,1.57,0,3.29-.98,3.29-3.25v-4.55c0-.51-.35-.9-.86-.9h-2.51c-1.25,0-2.04.51-2.55,1.21-.47.67-.67,1.45-.67,2.55v1.1Z"/>
    <path class="cls-2" d="M118.75,75.97c-.71.74-.94,1.92-.94,3.53v10.31c0,1.61.24,2.78.94,3.53.63.67,1.45.98,2.35.98s1.72-.31,2.35-.98c.71-.74.94-1.8.94-3.41v-.43c0-.55.43-.98.98-.98h1.33c.55,0,.98.43.98.98v.59c0,2.47-.63,4-1.65,5.17-1.14,1.29-2.82,2.12-4.94,2.12s-3.8-.82-4.94-2.12c-1.02-1.18-1.65-2.7-1.65-5.17v-10.85c0-2.47.63-4,1.65-5.17,1.14-1.29,2.82-2.12,4.94-2.12s3.8.82,4.94,2.12c.98,1.14,1.65,2.59,1.65,4.82v.9c0,.55-.43.98-.98.98h-1.33c-.55,0-.98-.43-.98-.98v-.86c0-1.29-.35-2.31-.94-2.94-.63-.67-1.45-.98-2.35-.98s-1.72.31-2.35.98Z"/>
    <path class="cls-2" d="M131.06,75.3c-.55,0-.98-.43-.98-.98v-1.14c0-.55.43-.98.98-.98h1.45c.51,0,.86-.43.86-.94v-2.74c0-.55.43-.98.98-.98h1.33c.55,0,.98.43.98.98v2.74c0,.51.35.94.86.94h2.7c.55,0,.98.43.98.98v1.14c0,.55-.43.98-.98.98h-2.7c-.51,0-.86.39-.86.9v15.79c0,.74.2,1.25.51,1.53.23.23.71.47,1.25.47h1.8c.55,0,.98.43.98.98v1.14c0,.55-.43.98-.98.98h-1.33c-2.12,0-3.49-.43-4.39-1.41-.74-.82-1.14-1.96-1.14-3.84v-15.63c0-.51-.35-.9-.86-.9h-1.45Z"/>
  </g>
  <path class="cls-2" d="M155.65,78.58c0-33.02,26.67-59.69,59.69-59.69,16.59,0,31.47,6.67,42.17,17.52l-34.42,42.17,34.42,42.17c-10.7,10.85-25.73,17.52-42.17,17.52-33.02,0-59.69-26.67-59.69-59.69h0Z"/>
  <g>
    <path class="cls-1" d="M188.84,65.74c0-.55.47-.98,1.02-.98h1.37c.55,0,.98.43.98.98v24.33c0,2.47-.63,4-1.68,5.17-1.14,1.29-2.9,2.12-5.05,2.12s-3.88-.82-5.06-2.12c-1.02-1.18-1.69-2.7-1.69-5.17v-24.33c0-.55.47-.98,1.02-.98h1.37c.55,0,.98.43.98.98v24.06c0,1.61.24,2.78.98,3.53.63.67,1.45.98,2.39.98s1.8-.31,2.43-.98c.71-.74.94-1.92.94-3.53v-24.06Z"/>
    <path class="cls-1" d="M201.11,75.89c-.59.59-.82,1.49-.82,2.82v.08c0,.71.2,1.61.51,2.12.31.51.74.86,1.8,1.33l2.74,1.21c2.19.98,2.98,1.69,3.64,2.59.67.94,1.02,2.04,1.02,3.64v1.02c0,4.19-2.86,6.66-6.54,6.66-2.12,0-3.72-.82-4.86-2.12-1.02-1.18-1.65-2.7-1.65-5.17v-.59c0-.55.43-.98.98-.98h1.33c.55,0,.98.43.98.98v.04c0,1.61.23,3.06.9,3.8.63.67,1.41.98,2.31.98s1.76-.27,2.39-.9c.59-.59.9-1.49.9-2.82v-.16c0-.98-.2-1.92-.55-2.43-.31-.47-.86-1.02-1.92-1.49l-2.74-1.21c-2.19-.98-2.86-1.65-3.53-2.55-.67-.94-.98-2.19-.98-3.8v-.35c0-4.19,2.7-6.66,6.39-6.66,2.12,0,3.8.82,4.94,2.12.98,1.14,1.65,2.59,1.65,4.82v.27c0,.55-.43.98-.98.98h-1.33c-.55,0-.98-.43-.98-.98,0-1.37-.31-2.51-.94-3.17-.63-.67-1.45-.98-2.35-.98s-1.69.27-2.31.9Z"/>
  </g>
</svg>