<?xml version="1.0" encoding="UTF-8"?>
<svg id="Layer_1" xmlns="http://www.w3.org/2000/svg" version="1.1" viewBox="0 0 321 307.8">
  <!-- Generator: Adobe Illustrator 30.3.0, SVG Export Plug-In . SVG Version: 2.1.3 Build 182)  -->
  <defs>
    <style>
      .st0 {
        fill: #ed1c24;
      }

      .st1 {
        fill: #fff;
      }
    </style>
  </defs>
  <g>
    <path class="st1" d="M214.6,63.1l-15.3,57.1-155.3-.4c-5.9-18.7-12.4-37.5-16.8-56.7h187.4Z"/>
    <path class="st1" d="M231.4,188.8c-2.4,12.9-4.4,26-7.9,38.6s-4.3,16.7-6.2,17.3l-156.5-.4c-6.3-18.1-11.2-36.9-15.7-55.6h186.3Z"/>
    <polygon class="st1" points="253.9 127.1 239.8 182.1 82.2 182 66.4 127.6 253.9 127.1"/>
  </g>
  <g>
    <path class="st0" d="M107.1,174.8c-1.3-1.5-2.2-3.5-2.2-6.6v-23.4c0-3.2.9-5.1,2.2-6.6,1.5-1.6,3.7-2.7,6.5-2.7s5,1.1,6.5,2.7c1.3,1.5,2.2,3.5,2.2,6.6v23.4c0,3.2-.9,5.1-2.2,6.6-1.5,1.6-3.7,2.7-6.5,2.7s-5-1.1-6.5-2.7ZM116.6,172.3c1-1,1.2-2.5,1.2-4.5v-22.7c0-2-.3-3.5-1.2-4.5-.8-.9-1.9-1.2-3.1-1.2s-2.2.4-3.1,1.2c-.9,1-1.2,2.5-1.2,4.5v22.7c0,2.1.3,3.6,1.2,4.5.8.9,1.9,1.2,3.1,1.2s2.2-.4,3.1-1.2Z"/>
    <path class="st0" d="M145.5,175.9c0,.7-.5,1.2-1.2,1.2h-1.8c-.7,0-1.3-.5-1.3-1.2v-10.8c0-2.1-.3-3.6-1.2-4.5-.8-.9-1.9-1.3-3.1-1.3h-3c-.6,0-1.1.5-1.1,1.1v15.5c0,.7-.6,1.2-1.2,1.2h-1.8c-.7,0-1.3-.5-1.3-1.2v-38.8c0-.7.6-1.2,1.3-1.2h7.2c2.8,0,4.9,1,6.4,2.7,1.4,1.5,2.1,3.5,2.1,6.6v4.4c0,2.3-.2,4.8-2.1,6.6l-.4.4c-.3.3-.4.5-.4.8s.1.5.4.8l.4.4c1.8,1.8,2.1,4.2,2.1,6.6v10.8ZM136.9,155.3c1.2,0,2.3-.4,3.1-1.2.9-.9,1.2-2.5,1.2-4.5v-3.9c0-2-.2-3.5-1.1-4.5-.8-.9-1.9-1.2-3.1-1.2h-2.9c-.9,0-1.3.4-1.3,1.1v13.2c0,.8.4,1.1,1.1,1.1h3Z"/>
    <path class="st0" d="M153.1,177.1c-.7,0-1.3-.5-1.3-1.2v-38.8c0-.7.6-1.2,1.3-1.2h7.4c2.8,0,5,1,6.4,2.7,1.4,1.5,2.2,3.5,2.2,6.6v22.7c0,3.2-.9,5.1-2.2,6.6-1.5,1.6-3.7,2.7-6.4,2.7h-7.3ZM156.1,172c0,.8.4,1.1,1.1,1.1h3.2c1.2,0,2.3-.4,3.1-1.2.9-1,1.2-2.5,1.2-4.5v-21.7c0-2-.2-3.5-1.1-4.5-.8-.9-1.9-1.2-3.1-1.2h-3.2c-.9,0-1.2.4-1.2,1.1v31Z"/>
    <path class="st0" d="M176.5,177.1c-.7,0-1.3-.5-1.3-1.2v-38.8c0-.7.6-1.2,1.3-1.2h10.5c.7,0,1.2.5,1.2,1.2v1.6c0,.7-.5,1.1-1.2,1.2h-6.4c-.6,0-1.1.5-1.1,1.1v12c0,.6.5,1.1,1.1,1.1h6.4c.7,0,1.2.5,1.2,1.2v1.6c0,.7-.5,1.2-1.2,1.2h-6.4c-.6,0-1.1.5-1.1,1.2v12.4c0,.7.5,1.2,1.1,1.2h6.4c.7,0,1.2.5,1.2,1.2v1.6c0,.7-.5,1.2-1.2,1.2h-10.5Z"/>
    <path class="st0" d="M210.6,175.9c0,.7-.5,1.2-1.2,1.2h-1.8c-.7,0-1.3-.5-1.3-1.2v-10.8c0-2.1-.3-3.6-1.2-4.5-.8-.9-1.9-1.3-3.1-1.3h-3c-.6,0-1.1.5-1.1,1.1v15.5c0,.7-.6,1.2-1.2,1.2h-1.8c-.7,0-1.3-.5-1.3-1.2v-38.8c0-.7.6-1.2,1.3-1.2h7.2c2.8,0,4.9,1,6.4,2.7,1.4,1.5,2.1,3.5,2.1,6.6v4.4c0,2.3-.2,4.8-2.1,6.6l-.4.4c-.3.3-.4.5-.4.8s.1.5.4.8l.4.4c1.8,1.8,2.1,4.2,2.1,6.6v10.8ZM202,155.3c1.2,0,2.3-.4,3.1-1.2.9-.9,1.2-2.5,1.2-4.5v-3.9c0-2-.2-3.5-1.1-4.5-.8-.9-1.9-1.2-3.1-1.2h-2.9c-.8,0-1.3.4-1.3,1.1v13.2c0,.8.4,1.1,1.1,1.1h3Z"/>
  </g>
</svg>