<?xml version="1.0" encoding="UTF-8"?>
<svg id="Layer_1" data-name="Layer 1" xmlns="http://www.w3.org/2000/svg" viewBox="0 0 321.03 307.82">
  <defs>
    <style>
      .cls-1 {
        fill: #fff;
      }

      .cls-2 {
        fill: #ec008c;
      }
    </style>
  </defs>
  <g>
    <path class="cls-1" d="M214.59,63.08l-15.31,57.08-155.33-.36c-5.86-18.65-12.38-37.53-16.79-56.72h187.43Z"/>
    <path class="cls-1" d="M231.42,188.78c-2.42,12.92-4.38,25.97-7.95,38.63-.86,3.05-4.34,16.7-6.24,17.33l-156.45-.36c-6.32-18.08-11.15-36.9-15.67-55.6h186.3Z"/>
    <polygon class="cls-1" points="253.87 127.06 239.75 182.11 82.2 181.99 66.43 127.6 253.87 127.06"/>
  </g>
  <g>
    <path class="cls-2" d="M107.13,174.76c-1.3-1.5-2.15-3.45-2.15-6.6v-23.35c0-3.15.85-5.1,2.15-6.6,1.5-1.65,3.7-2.7,6.45-2.7s4.95,1.05,6.45,2.7c1.3,1.5,2.15,3.45,2.15,6.6v23.35c0,3.15-.85,5.1-2.15,6.6-1.5,1.65-3.7,2.7-6.45,2.7s-4.95-1.05-6.45-2.7ZM116.63,172.31c.95-.95,1.25-2.45,1.25-4.5v-22.65c0-2.05-.3-3.55-1.25-4.5-.8-.85-1.85-1.25-3.05-1.25s-2.25.4-3.05,1.25c-.95.95-1.25,2.45-1.25,4.5v22.65c0,2.05.3,3.55,1.25,4.5.8.85,1.85,1.25,3.05,1.25s2.25-.4,3.05-1.25Z"/>
    <path class="cls-2" d="M145.48,175.86c0,.7-.55,1.25-1.25,1.25h-1.75c-.7,0-1.3-.55-1.3-1.25v-10.8c0-2.05-.3-3.55-1.2-4.5-.8-.85-1.9-1.3-3.1-1.3h-3c-.65,0-1.1.5-1.1,1.15v15.45c0,.7-.55,1.25-1.25,1.25h-1.75c-.7,0-1.3-.55-1.3-1.25v-38.75c0-.7.6-1.25,1.3-1.25h7.2c2.75,0,4.9,1.05,6.35,2.7,1.35,1.5,2.15,3.45,2.15,6.6v4.4c0,2.3-.25,4.8-2.05,6.55l-.4.4c-.3.3-.4.55-.4.8s.1.5.4.8l.4.4c1.8,1.75,2.05,4.25,2.05,6.55v10.8ZM136.88,155.26c1.15,0,2.3-.4,3.1-1.25.9-.95,1.2-2.45,1.2-4.5v-3.85c0-2.05-.25-3.55-1.15-4.5-.8-.85-1.9-1.25-3.05-1.25h-2.9c-.85,0-1.3.35-1.3,1.1v13.15c0,.75.4,1.1,1.15,1.1h2.95Z"/>
    <path class="cls-2" d="M153.08,177.11c-.7,0-1.3-.55-1.3-1.25v-38.75c0-.7.6-1.25,1.3-1.25h7.35c2.75,0,4.95,1.05,6.4,2.7,1.35,1.5,2.15,3.45,2.15,6.6v22.65c0,3.15-.85,5.1-2.2,6.6-1.45,1.65-3.65,2.7-6.4,2.7h-7.3ZM156.08,171.96c0,.75.35,1.1,1.1,1.1h3.25c1.15,0,2.25-.4,3.05-1.25.9-.95,1.2-2.45,1.2-4.5v-21.65c0-2.05-.25-3.55-1.15-4.5-.8-.85-1.9-1.25-3.05-1.25h-3.15c-.85,0-1.25.35-1.25,1.1v30.95Z"/>
    <path class="cls-2" d="M176.48,177.11c-.7,0-1.3-.55-1.3-1.25v-38.75c0-.7.6-1.25,1.3-1.25h10.5c.7,0,1.25.55,1.25,1.25v1.6c0,.7-.55,1.1-1.25,1.25h-6.4c-.65,0-1.1.5-1.1,1.15v11.95c0,.65.45,1.15,1.1,1.15h6.4c.7,0,1.25.55,1.25,1.25v1.6c0,.7-.55,1.25-1.25,1.25h-6.4c-.65,0-1.1.5-1.1,1.15v12.4c0,.65.45,1.15,1.1,1.15h6.4c.7,0,1.25.55,1.25,1.25v1.6c0,.7-.55,1.25-1.25,1.25h-10.5Z"/>
    <path class="cls-2" d="M210.63,175.86c0,.7-.55,1.25-1.25,1.25h-1.75c-.7,0-1.3-.55-1.3-1.25v-10.8c0-2.05-.3-3.55-1.2-4.5-.8-.85-1.9-1.3-3.1-1.3h-3c-.65,0-1.1.5-1.1,1.15v15.45c0,.7-.55,1.25-1.25,1.25h-1.75c-.7,0-1.3-.55-1.3-1.25v-38.75c0-.7.6-1.25,1.3-1.25h7.2c2.75,0,4.9,1.05,6.35,2.7,1.35,1.5,2.15,3.45,2.15,6.6v4.4c0,2.3-.25,4.8-2.05,6.55l-.4.4c-.3.3-.4.55-.4.8s.1.5.4.8l.4.4c1.8,1.75,2.05,4.25,2.05,6.55v10.8ZM202.03,155.26c1.15,0,2.3-.4,3.1-1.25.9-.95,1.2-2.45,1.2-4.5v-3.85c0-2.05-.25-3.55-1.15-4.5-.8-.85-1.9-1.25-3.05-1.25h-2.9c-.85,0-1.3.35-1.3,1.1v13.15c0,.75.4,1.1,1.15,1.1h2.95Z"/>
  </g>
</svg>