<?xml version="1.0" encoding="UTF-8"?>
<svg id="Layer_1" xmlns="http://www.w3.org/2000/svg" xmlns:xlink="http://www.w3.org/1999/xlink" version="1.1" viewBox="0 0 1151.4 498.7">
  <!-- Generator: Adobe Illustrator 30.3.0, SVG Export Plug-In . SVG Version: 2.1.3 Build 182)  -->
  <defs>
    <style>
      .st0, .st1 {
        fill: none;
      }

      .st2 {
        fill: #231f20;
      }

      .st3 {
        fill: #ec008c;
      }

      .st4 {
        fill: #ed1c24;
      }

      .st1 {
        stroke: #231f20;
        stroke-miterlimit: 10;
        stroke-width: .5px;
      }

      .st5 {
        clip-path: url(#clippath-11);
      }

      .st6 {
        clip-path: url(#clippath-10);
      }

      .st7 {
        clip-path: url(#clippath-15);
      }

      .st8 {
        clip-path: url(#clippath-13);
      }

      .st9 {
        clip-path: url(#clippath-14);
      }

      .st10 {
        clip-path: url(#clippath-12);
      }

      .st11 {
        clip-path: url(#clippath-1);
      }

      .st12 {
        clip-path: url(#clippath-3);
      }

      .st13 {
        clip-path: url(#clippath-4);
      }

      .st14 {
        clip-path: url(#clippath-2);
      }

      .st15 {
        clip-path: url(#clippath-7);
      }

      .st16 {
        clip-path: url(#clippath-6);
      }

      .st17 {
        clip-path: url(#clippath-9);
      }

      .st18 {
        clip-path: url(#clippath-8);
      }

      .st19 {
        clip-path: url(#clippath-5);
      }

      .st20 {
        fill: #ffce07;
      }

      .st21 {
        clip-path: url(#clippath);
      }
    </style>
    <clipPath id="clippath">
      <rect class="st0" x="61.8" y="105.1" width="1027.8" height="207.8"/>
    </clipPath>
    <clipPath id="clippath-1">
      <rect class="st0" x="61.8" y="105.1" width="1023.5" height="303.8"/>
    </clipPath>
    <clipPath id="clippath-2">
      <rect class="st0" x="61.8" y="105.1" width="1023.5" height="303.8"/>
    </clipPath>
    <clipPath id="clippath-3">
      <rect class="st0" x="61.8" y="105.1" width="1023.5" height="303.8"/>
    </clipPath>
    <clipPath id="clippath-4">
      <rect class="st0" x="61.8" y="105.1" width="1023.5" height="303.8"/>
    </clipPath>
    <clipPath id="clippath-5">
      <rect class="st0" x="61.8" y="105.1" width="1023.5" height="303.8"/>
    </clipPath>
    <clipPath id="clippath-6">
      <rect class="st0" x="61.8" y="105.1" width="1023.5" height="303.8"/>
    </clipPath>
    <clipPath id="clippath-7">
      <rect class="st0" x="61.8" y="105.1" width="1023.5" height="303.8"/>
    </clipPath>
    <clipPath id="clippath-8">
      <rect class="st0" x="61.8" y="105.1" width="1023.5" height="303.8"/>
    </clipPath>
    <clipPath id="clippath-9">
      <rect class="st0" x="61.8" y="105.1" width="1023.5" height="303.8"/>
    </clipPath>
    <clipPath id="clippath-10">
      <rect class="st0" x="61.8" y="105.1" width="1023.5" height="303.8"/>
    </clipPath>
    <clipPath id="clippath-11">
      <rect class="st0" x="61.8" y="105.1" width="1023.5" height="303.8"/>
    </clipPath>
    <clipPath id="clippath-12">
      <rect class="st0" x="61.8" y="105.1" width="1023.5" height="303.8"/>
    </clipPath>
    <clipPath id="clippath-13">
      <rect class="st0" x="61.8" y="105.1" width="1023.5" height="303.8"/>
    </clipPath>
    <clipPath id="clippath-14">
      <rect class="st0" x="61.8" y="105.1" width="1023.5" height="303.8"/>
    </clipPath>
    <clipPath id="clippath-15">
      <rect class="st0" x="61.8" y="105.1" width="1023.5" height="303.8"/>
    </clipPath>
  </defs>
  <g>
    <g>
      <g class="st21">
        <path class="st3" d="M61.7,107.8h121.7c42.1,0,76.1,34,76.1,76.1s-34,75.6-76.1,75.6h-21.9v50.7H61.7V107.8h0Z"/>
      </g>
      <path class="st4" d="M271.6,209c0-57.5,46.4-103.9,103.9-103.9s103.9,46.4,103.9,103.9-46.4,103.9-103.9,103.9-103.9-46.4-103.9-103.9h0Z"/>
      <path class="st20" d="M493.9,209c0-57.5,46.4-103.9,103.9-103.9s54.8,11.6,73.4,30.5l-59.9,73.4,59.9,73.4c-18.6,18.9-44.8,30.5-73.4,30.5-57.5,0-103.9-46.4-103.9-103.9h0Z"/>
      <polygon class="st4" points="943.3 206.1 896.9 107.8 970.1 107.8 993.3 145 1016.5 107.8 1089.6 107.8 1043.2 206.1 1043.2 310.2 943.3 310.2 943.3 206.1 943.3 206.1"/>
      <polygon class="st3" points="811.6 107.8 770.6 145.5 771.1 107.8 688 107.8 688 310.2 887.1 310.2 795.8 207.7 884.4 107.8 811.6 107.8 811.6 107.8"/>
    </g>
    <path class="st3" d="M572.4,60.5l-35.3,47.4c-1.1,1.5-2.7,2.5-4.6,3l-57.7,12.9c-5.4,1.2-7.8,7.4-4.8,12.1l28.9,44.7c3,4.7,9.7,4.9,13,.5l35.3-47.4c1.1-1.5,2.7-2.5,4.6-3l57.7-12.9c5.4-1.2,7.8-7.4,4.8-12.1l-28.9-44.7c-3-4.7-9.7-4.9-13-.5Z"/>
  </g>
  <g>
    <path class="st2" d="M189.5,391.3l-7.3-16.7h-1.7l-7.2,16.7h16.2ZM191.7,396.4h-20.6l-5.3,12.2h-5.8l16.9-38.9h9.3l17.1,38.9h-6.1l-5.4-12.2h0Z"/>
    <g class="st11">
      <path class="st1" d="M189.5,391.3l-7.3-16.7h-1.7l-7.2,16.7h16.2ZM191.7,396.4h-20.6l-5.3,12.2h-5.8l16.9-38.9h9.3l17.1,38.9h-6.1l-5.4-12.2h0Z"/>
    </g>
    <polygon class="st2" points="227.6 374.7 227.6 385.5 252.6 385.5 252.6 408.6 221.5 408.6 221.5 403.6 247.1 403.6 247.1 390.5 222 390.5 222 369.7 252.1 369.7 252.1 374.7 227.6 374.7 227.6 374.7"/>
    <g class="st14">
      <polygon class="st1" points="227.6 374.7 227.6 385.5 252.6 385.5 252.6 408.6 221.5 408.6 221.5 403.6 247.1 403.6 247.1 390.5 222 390.5 222 369.7 252.1 369.7 252.1 374.7 227.6 374.7 227.6 374.7"/>
    </g>
    <polygon class="st2" points="289 374.7 289 403.6 301.5 403.6 301.5 408.6 270.9 408.6 270.9 403.6 283.4 403.6 283.4 374.7 270.9 374.7 270.9 369.7 301.5 369.7 301.5 374.7 289 374.7 289 374.7"/>
    <g class="st12">
      <polygon class="st1" points="289 374.7 289 403.6 301.5 403.6 301.5 408.6 270.9 408.6 270.9 403.6 283.4 403.6 283.4 374.7 270.9 374.7 270.9 369.7 301.5 369.7 301.5 374.7 289 374.7 289 374.7"/>
    </g>
    <path class="st2" d="M346.6,391.3l-7.3-16.7h-1.7l-7.2,16.7h16.2ZM348.8,396.4h-20.6l-5.3,12.2h-5.8l16.9-38.9h9.3l17.1,38.9h-6.1l-5.4-12.2h0Z"/>
    <g class="st13">
      <path class="st1" d="M346.6,391.3l-7.3-16.7h-1.7l-7.2,16.7h16.2ZM348.8,396.4h-20.6l-5.3,12.2h-5.8l16.9-38.9h9.3l17.1,38.9h-6.1l-5.4-12.2h0Z"/>
    </g>
    <polygon class="st2" points="414.7 369.7 414.7 408.6 403.5 408.6 386.3 374.7 384.1 374.7 384.1 408.6 378.6 408.6 378.6 369.7 389.7 369.7 406.9 403.6 409.1 403.6 409.1 369.7 414.7 369.7 414.7 369.7"/>
    <g class="st19">
      <polygon class="st1" points="414.7 369.7 414.7 408.6 403.5 408.6 386.3 374.7 384.1 374.7 384.1 408.6 378.6 408.6 378.6 369.7 389.7 369.7 406.9 403.6 409.1 403.6 409.1 369.7 414.7 369.7 414.7 369.7"/>
    </g>
    <path class="st2" d="M466.5,384.7h25v-10h-25v10h0ZM497.7,403.6v5h-14.5v-18.9h-16.7v18.9h-5.6v-38.9h36.1v20h-8.3v13.9h8.9Z"/>
    <g class="st16">
      <path class="st1" d="M466.5,384.7h25v-10h-25v10h0ZM497.7,403.6v5h-14.5v-18.9h-16.7v18.9h-5.6v-38.9h36.1v20h-8.3v13.9h8.9Z"/>
    </g>
    <polygon class="st2" points="551 403.6 551 408.6 517.6 408.6 517.6 369.7 549.9 369.7 549.9 374.7 523.2 374.7 523.2 385.5 548.2 385.5 548.2 390.5 523.2 390.5 523.2 403.6 551 403.6 551 403.6"/>
    <g class="st15">
      <polygon class="st1" points="551 403.6 551 408.6 517.6 408.6 517.6 369.7 549.9 369.7 549.9 374.7 523.2 374.7 523.2 385.5 548.2 385.5 548.2 390.5 523.2 390.5 523.2 403.6 551 403.6 551 403.6"/>
    </g>
    <polygon class="st2" points="575.9 374.7 575.9 385.5 601 385.5 601 408.6 569.8 408.6 569.8 403.6 595.4 403.6 595.4 390.5 570.4 390.5 570.4 369.7 600.4 369.7 600.4 374.7 575.9 374.7 575.9 374.7"/>
    <g class="st18">
      <polygon class="st1" points="575.9 374.7 575.9 385.5 601 385.5 601 408.6 569.8 408.6 569.8 403.6 595.4 403.6 595.4 390.5 570.4 390.5 570.4 369.7 600.4 369.7 600.4 374.7 575.9 374.7 575.9 374.7"/>
    </g>
    <polygon class="st2" points="654.3 374.7 639.3 374.7 639.3 408.6 633.7 408.6 633.7 374.7 618.7 374.7 618.7 369.7 654.3 369.7 654.3 374.7 654.3 374.7"/>
    <g class="st17">
      <polygon class="st1" points="654.3 374.7 639.3 374.7 639.3 408.6 633.7 408.6 633.7 374.7 618.7 374.7 618.7 369.7 654.3 369.7 654.3 374.7 654.3 374.7"/>
    </g>
    <path class="st2" d="M694.4,391.3l-7.3-16.7h-1.7l-7.2,16.7h16.2ZM696.5,396.4h-20.6l-5.3,12.2h-5.8l16.9-38.9h9.3l17.1,38.9h-6.1l-5.4-12.2h0Z"/>
    <g class="st6">
      <path class="st1" d="M694.4,391.3l-7.3-16.7h-1.7l-7.2,16.7h16.2ZM696.5,396.4h-20.6l-5.3,12.2h-5.8l16.9-38.9h9.3l17.1,38.9h-6.1l-5.4-12.2h0Z"/>
    </g>
    <polygon class="st2" points="761.4 408.6 726.3 408.6 726.3 369.7 731.9 369.7 731.9 403 755.8 403 755.8 369.7 761.4 369.7 761.4 408.6 761.4 408.6"/>
    <g class="st5">
      <polygon class="st1" points="761.4 408.6 726.3 408.6 726.3 369.7 731.9 369.7 731.9 403 755.8 403 755.8 369.7 761.4 369.7 761.4 408.6 761.4 408.6"/>
    </g>
    <path class="st2" d="M788,384.7h25v-10h-25v10h0ZM819.1,403.6v5h-14.5v-18.9h-16.7v18.9h-5.6v-38.9h36.1v20h-8.3v13.9h8.9Z"/>
    <g class="st10">
      <path class="st1" d="M788,384.7h25v-10h-25v10h0ZM819.1,403.6v5h-14.5v-18.9h-16.7v18.9h-5.6v-38.9h36.1v20h-8.3v13.9h8.9Z"/>
    </g>
    <path class="st2" d="M865.9,391.3l-7.3-16.7h-1.7l-7.2,16.7h16.2ZM868.1,396.4h-20.6l-5.3,12.2h-5.8l16.9-38.9h9.3l17.1,38.9h-6.1l-5.4-12.2h0Z"/>
    <g class="st8">
      <path class="st1" d="M865.9,391.3l-7.3-16.7h-1.7l-7.2,16.7h16.2ZM868.1,396.4h-20.6l-5.3,12.2h-5.8l16.9-38.9h9.3l17.1,38.9h-6.1l-5.4-12.2h0Z"/>
    </g>
    <polygon class="st2" points="934 369.7 934 408.6 922.8 408.6 905.7 374.7 903.4 374.7 903.4 408.6 897.9 408.6 897.9 369.7 909 369.7 926.2 403.6 928.5 403.6 928.5 369.7 934 369.7 934 369.7"/>
    <g class="st9">
      <polygon class="st1" points="934 369.7 934 408.6 922.8 408.6 905.7 374.7 903.4 374.7 903.4 408.6 897.9 408.6 897.9 369.7 909 369.7 926.2 403.6 928.5 403.6 928.5 369.7 934 369.7 934 369.7"/>
    </g>
    <polygon class="st2" points="987.3 374.7 972.3 374.7 972.3 408.6 966.8 408.6 966.8 374.7 951.7 374.7 951.7 369.7 987.3 369.7 987.3 374.7 987.3 374.7"/>
    <g class="st7">
      <polygon class="st1" points="987.3 374.7 972.3 374.7 972.3 408.6 966.8 408.6 966.8 374.7 951.7 374.7 951.7 369.7 987.3 369.7 987.3 374.7 987.3 374.7"/>
    </g>
  </g>
</svg>