<?xml version="1.0" encoding="UTF-8"?>
<svg id="Layer_1" data-name="Layer 1" xmlns="http://www.w3.org/2000/svg" viewBox="0 0 586.28 192.44">
  <defs>
    <style>
      .cls-1, .cls-2 {
        fill: none;
      }

      .cls-3 {
        fill: #ec008c;
      }

      .cls-4 {
        fill: #231f20;
      }

      .cls-5 {
        fill: #ffce07;
      }

      .cls-2 {
        stroke: #231f20;
        stroke-miterlimit: 10;
        stroke-width: .5px;
      }

      .cls-6 {
        fill: #ed1c24;
      }
    </style>
  </defs>
  <path class="cls-3" d="M55.2,26.84h56.35c19.49,0,35.23,15.74,35.23,35.23s-15.74,34.98-35.23,34.98h-10.12v23.49h-46.23V26.84h0Z"/>
  <path class="cls-6" d="M152.4,73.69c0-26.61,21.49-48.1,48.1-48.1s48.1,21.49,48.1,48.1-21.49,48.1-48.1,48.1-48.1-21.49-48.1-48.1h0Z"/>
  <path class="cls-5" d="M255.29,73.69c0-26.61,21.49-48.1,48.1-48.1,13.37,0,25.36,5.37,33.98,14.12l-27.74,33.98,27.74,33.98c-8.62,8.75-20.74,14.12-33.98,14.12-26.61,0-48.1-21.49-48.1-48.1h0Z"/>
  <polygon class="cls-6" points="463.39 72.34 441.89 26.84 475.75 26.84 486.5 44.08 497.24 26.84 531.1 26.84 509.61 72.34 509.61 120.55 463.39 120.55 463.39 72.34 463.39 72.34"/>
  <polygon class="cls-3" points="402.37 26.84 383.41 44.3 383.63 26.84 345.15 26.84 345.15 120.55 437.36 120.55 395.06 73.1 436.11 26.84 402.37 26.84 402.37 26.84"/>
  <rect class="cls-1" x="55.2" y="25.59" width="475.87" height="141.26"/>
  <path class="cls-4" d="M114.56,158.68l-3.41-7.76h-.78l-3.36,7.76h7.55ZM115.57,161.01h-9.56l-2.48,5.69h-2.71l7.86-18.1h4.32l7.94,18.1h-2.84l-2.51-5.69h0Z"/>
  <path class="cls-2" d="M114.56,158.68l-3.41-7.76h-.78l-3.36,7.76h7.55ZM115.57,161.01h-9.56l-2.48,5.69h-2.71l7.86-18.1h4.32l7.94,18.1h-2.84l-2.51-5.69h0Z"/>
  <rect class="cls-1" x="55.2" y="25.59" width="475.87" height="141.26"/>
  <polygon class="cls-4" points="132.27 150.92 132.27 155.96 143.9 155.96 143.9 166.69 129.43 166.69 129.43 164.37 141.32 164.37 141.32 158.29 129.68 158.29 129.68 148.6 143.65 148.6 143.65 150.92 132.27 150.92 132.27 150.92"/>
  <polygon class="cls-2" points="132.27 150.92 132.27 155.96 143.9 155.96 143.9 166.69 129.43 166.69 129.43 164.37 141.32 164.37 141.32 158.29 129.68 158.29 129.68 148.6 143.65 148.6 143.65 150.92 132.27 150.92 132.27 150.92"/>
  <rect class="cls-1" x="55.2" y="25.59" width="475.87" height="141.26"/>
  <polygon class="cls-4" points="160.81 150.92 160.81 164.37 166.63 164.37 166.63 166.69 152.41 166.69 152.41 164.37 158.22 164.37 158.22 150.92 152.41 150.92 152.41 148.6 166.63 148.6 166.63 150.92 160.81 150.92 160.81 150.92"/>
  <polygon class="cls-2" points="160.81 150.92 160.81 164.37 166.63 164.37 166.63 166.69 152.41 166.69 152.41 164.37 158.22 164.37 158.22 150.92 152.41 150.92 152.41 148.6 166.63 148.6 166.63 150.92 160.81 150.92 160.81 150.92"/>
  <rect class="cls-1" x="55.2" y="25.59" width="475.87" height="141.26"/>
  <path class="cls-4" d="M187.59,158.68l-3.41-7.76h-.78l-3.36,7.76h7.55ZM188.6,161.01h-9.56l-2.48,5.69h-2.72l7.86-18.1h4.32l7.94,18.1h-2.84l-2.51-5.69h0Z"/>
  <path class="cls-2" d="M187.59,158.68l-3.41-7.76h-.78l-3.36,7.76h7.55ZM188.6,161.01h-9.56l-2.48,5.69h-2.72l7.86-18.1h4.32l7.94,18.1h-2.84l-2.51-5.69h0Z"/>
  <rect class="cls-1" x="55.2" y="25.59" width="475.87" height="141.26"/>
  <polygon class="cls-4" points="219.26 148.6 219.26 166.69 214.06 166.69 206.07 150.92 205.04 150.92 205.04 166.69 202.45 166.69 202.45 148.6 207.65 148.6 215.64 164.37 216.67 164.37 216.67 148.6 219.26 148.6 219.26 148.6"/>
  <polygon class="cls-2" points="219.26 148.6 219.26 166.69 214.06 166.69 206.07 150.92 205.04 150.92 205.04 166.69 202.45 166.69 202.45 148.6 207.65 148.6 215.64 164.37 216.67 164.37 216.67 148.6 219.26 148.6 219.26 148.6"/>
  <rect class="cls-1" x="55.2" y="25.59" width="475.87" height="141.26"/>
  <path class="cls-4" d="M243.35,155.58h11.63v-4.65h-11.63v4.65h0ZM257.83,164.37v2.33h-6.72v-8.79h-7.76v8.79h-2.59v-18.1h16.8v9.31h-3.88v6.46h4.14Z"/>
  <path class="cls-2" d="M243.35,155.58h11.63v-4.65h-11.63v4.65h0ZM257.83,164.37v2.33h-6.72v-8.79h-7.76v8.79h-2.59v-18.1h16.8v9.31h-3.88v6.46h4.14Z"/>
  <rect class="cls-1" x="55.2" y="25.59" width="475.87" height="141.26"/>
  <polygon class="cls-4" points="282.62 164.37 282.62 166.69 267.11 166.69 267.11 148.6 282.1 148.6 282.1 150.92 269.69 150.92 269.69 155.96 281.33 155.96 281.33 158.29 269.69 158.29 269.69 164.37 282.62 164.37 282.62 164.37"/>
  <polygon class="cls-2" points="282.62 164.37 282.62 166.69 267.11 166.69 267.11 148.6 282.1 148.6 282.1 150.92 269.69 150.92 269.69 155.96 281.33 155.96 281.33 158.29 269.69 158.29 269.69 164.37 282.62 164.37 282.62 164.37"/>
  <rect class="cls-1" x="55.2" y="25.59" width="475.87" height="141.26"/>
  <polygon class="cls-4" points="294.22 150.92 294.22 155.96 305.86 155.96 305.86 166.69 291.38 166.69 291.38 164.37 303.27 164.37 303.27 158.29 291.64 158.29 291.64 148.6 305.6 148.6 305.6 150.92 294.22 150.92 294.22 150.92"/>
  <polygon class="cls-2" points="294.22 150.92 294.22 155.96 305.86 155.96 305.86 166.69 291.38 166.69 291.38 164.37 303.27 164.37 303.27 158.29 291.64 158.29 291.64 148.6 305.6 148.6 305.6 150.92 294.22 150.92 294.22 150.92"/>
  <rect class="cls-1" x="55.2" y="25.59" width="475.87" height="141.26"/>
  <polygon class="cls-4" points="330.65 150.92 323.67 150.92 323.67 166.69 321.08 166.69 321.08 150.92 314.1 150.92 314.1 148.6 330.65 148.6 330.65 150.92 330.65 150.92"/>
  <polygon class="cls-2" points="330.65 150.92 323.67 150.92 323.67 166.69 321.08 166.69 321.08 150.92 314.1 150.92 314.1 148.6 330.65 148.6 330.65 150.92 330.65 150.92"/>
  <rect class="cls-1" x="55.2" y="25.59" width="475.87" height="141.26"/>
  <path class="cls-4" d="M349.29,158.68l-3.41-7.76h-.78l-3.36,7.76h7.55ZM350.29,161.01h-9.56l-2.48,5.69h-2.71l7.86-18.1h4.32l7.94,18.1h-2.84l-2.51-5.69h0Z"/>
  <path class="cls-2" d="M349.29,158.68l-3.41-7.76h-.78l-3.36,7.76h7.55ZM350.29,161.01h-9.56l-2.48,5.69h-2.71l7.86-18.1h4.32l7.94,18.1h-2.84l-2.51-5.69h0Z"/>
  <rect class="cls-1" x="55.2" y="25.59" width="475.87" height="141.26"/>
  <polygon class="cls-4" points="380.44 166.69 364.15 166.69 364.15 148.6 366.74 148.6 366.74 164.11 377.85 164.11 377.85 148.6 380.44 148.6 380.44 166.69 380.44 166.69"/>
  <polygon class="cls-2" points="380.44 166.69 364.15 166.69 364.15 148.6 366.74 148.6 366.74 164.11 377.85 164.11 377.85 148.6 380.44 148.6 380.44 166.69 380.44 166.69"/>
  <rect class="cls-1" x="55.2" y="25.59" width="475.87" height="141.26"/>
  <path class="cls-4" d="M392.82,155.58h11.63v-4.65h-11.63v4.65h0ZM407.29,164.37v2.33h-6.72v-8.79h-7.76v8.79h-2.59v-18.1h16.8v9.31h-3.88v6.46h4.14Z"/>
  <path class="cls-2" d="M392.82,155.58h11.63v-4.65h-11.63v4.65h0ZM407.29,164.37v2.33h-6.72v-8.79h-7.76v8.79h-2.59v-18.1h16.8v9.31h-3.88v6.46h4.14Z"/>
  <rect class="cls-1" x="55.2" y="25.59" width="475.87" height="141.26"/>
  <path class="cls-4" d="M429.03,158.68l-3.41-7.76h-.78l-3.36,7.76h7.55ZM430.04,161.01h-9.57l-2.48,5.69h-2.72l7.86-18.1h4.32l7.94,18.1h-2.84l-2.51-5.69h0Z"/>
  <path class="cls-2" d="M429.03,158.68l-3.41-7.76h-.78l-3.36,7.76h7.55ZM430.04,161.01h-9.57l-2.48,5.69h-2.72l7.86-18.1h4.32l7.94,18.1h-2.84l-2.51-5.69h0Z"/>
  <rect class="cls-1" x="55.2" y="25.59" width="475.87" height="141.26"/>
  <polygon class="cls-4" points="460.7 148.6 460.7 166.69 455.51 166.69 447.52 150.92 446.48 150.92 446.48 166.69 443.9 166.69 443.9 148.6 449.09 148.6 457.08 164.37 458.12 164.37 458.12 148.6 460.7 148.6 460.7 148.6"/>
  <polygon class="cls-2" points="460.7 148.6 460.7 166.69 455.51 166.69 447.52 150.92 446.48 150.92 446.48 166.69 443.9 166.69 443.9 148.6 449.09 148.6 457.08 164.37 458.12 164.37 458.12 148.6 460.7 148.6 460.7 148.6"/>
  <rect class="cls-1" x="55.2" y="25.59" width="475.87" height="141.26"/>
  <polygon class="cls-4" points="485.49 150.92 478.51 150.92 478.51 166.69 475.93 166.69 475.93 150.92 468.95 150.92 468.95 148.6 485.49 148.6 485.49 150.92 485.49 150.92"/>
  <polygon class="cls-2" points="485.49 150.92 478.51 150.92 478.51 166.69 475.93 166.69 475.93 150.92 468.95 150.92 468.95 148.6 485.49 148.6 485.49 150.92 485.49 150.92"/>
  <rect class="cls-1" x="55.2" y="25.59" width="475.87" height="141.26"/>
</svg>