<?xml version="1.0" encoding="UTF-8"?>
<svg id="Layer_1" xmlns="http://www.w3.org/2000/svg" version="1.1" viewBox="0 0 1151.4 307.2">
  <!-- Generator: Adobe Illustrator 30.3.0, SVG Export Plug-In . SVG Version: 2.1.3 Build 182)  -->
  <defs>
    <style>
      .st0 {
        fill: #ec008c;
      }
    </style>
  </defs>
  <path class="st0" d="M52.6,227.2c18.7-47.4,33-95.6,42.8-144.6l49.7-8.1-7.1,76.2,19.5-70.4,47.8-8.3c-5.7,45.2-8.5,85.9-8.5,122.2v21.4l-42.4,7.5,7.5-91-27.2,100.8-22.9,3.1,13.7-128-29.5,113.5-43.2,5.8Z"/>
  <path class="st0" d="M278,63.4c14.7,0,25.1,8.2,31.2,24.5,3.2,8.5,4.8,17.7,4.8,27.8s-1.5,20.2-4.4,31.6c-5.1,19.4-14,37.3-26.6,53.6-15.4,19.9-31.7,29.9-48.8,29.9s-25.4-8.2-31.6-24.5c-3-8-4.6-17-4.6-27s1.5-20.5,4.6-32c5.1-19.5,13.9-37.5,26.4-53.8,15.4-20.1,31.7-30.1,49-30.1ZM270.6,115c-7.6,0-15.4,6.2-23.3,18.7-6.4,9.8-10.8,19.5-13.3,28.9-1.2,5-1.9,9.5-1.9,13.5,0,5.7,1.4,10.3,4.2,13.9,3.2,4,7.6,6,13.3,6s14.8-4.1,21-12.3c5-6.5,8.6-14.2,10.8-23.1,2.6-10.4,3.2-20.6,1.7-30.8-1.7-10-5.8-15-12.5-15Z"/>
  <path class="st0" d="M400.6,70.5l-1.2,38.7c-9.7.6-18.9,1.2-27.6,2.1-9.1,38.4-15.3,73.6-18.5,105.8l-35.1,9.1,19.1-110.6c-3.7.6-7.5,1.2-11.2,1.9l-11,2.1-2.5-38.9,88.1-10.2Z"/>
  <path class="st0" d="M400,79.2l38.4-6.7c-6.9,26.5-12.5,50.7-16.8,72.4l17.2-3.6,10.6-62.2,38.4-6.7c-14.7,56.7-24,104.8-27.8,144.4l-35.7,9.1,9.6-56.5c-3.9.8-9.8,2.1-17.7,3.7-2.6,17-4.5,31.6-5.6,43.6l-35.7,9.1,25.1-146.9Z"/>
  <path class="st0" d="M519.1,110.1c-1.1,4-2.1,8-2.9,11.9l-2.3,11.5,33.2-7.1-1.9,28.7c-15.8,2.8-28.1,5.2-37.1,7.3-.6,2.8-1,5.5-1.5,8.3l-1.6,8.1,38.7-5.6-2.7,38.7c-19.9,1.7-45.2,6.4-75.8,14.3l24.7-149,69.2-10.2-2.7,38.6c-13.6,1.2-26.1,2.8-37.4,4.6Z"/>
  <path class="st0" d="M567.3,79c21.7-6.5,39.6-9.8,53.4-9.8s28,6.5,27.8,19.5c-.1,18.7-11.9,37.5-35.3,56.3,1.9,5.3,10,21.8,24.1,49.7-7.2,6.6-18,16.4-32.5,29.3l-22.1-57.4h-.2s-.3,0-.3,0c-3.3,18.1-5.8,34.9-7.4,50.3l-32.9,9.2c.3-3,1.8-12.3,4.6-27.6l20.8-119.5ZM593.5,111.8c-1.2,4.7-2.4,9.4-3.3,14.1l-2.9,14.1c4.8-2.5,9.6-5.7,14.3-9.8,5.4-4.7,9-9.2,10.8-13.5.7-1.2,1-2.4,1-3.5,0-3-2-4.6-6-4.6s-7.8,1-13.9,3.1Z"/>
  <path class="st0" d="M703.6,58.2c-8.9,24.1-15,46-18.5,65.7l-40.1,6.2,20.2-69,38.4-2.9Z"/>
  <path class="st0" d="M778.8,116c-4.4,1.7-9.7,3.7-15.8,6l-15.6,6c0-6.5-1.8-9.8-5.4-9.8-5.1,0-10.3,2.9-15.4,8.7-3.6,4.3-5.1,8.5-4.6,12.5.4,2.6,3,3.9,7.9,3.9s6.1-.4,10.4-1.2c6-1.2,11.2-1.9,15.8-1.9,11.6,0,18.4,4,20.4,12.1.6,2.5.8,5.1.8,7.9,0,8.9-3.3,18.4-10,28.7-8.6,13.4-20.6,24.7-36.2,33.9-8.2,4.8-16.2,7.3-24.1,7.3s-14.3-2-21.2-6c3.5-8.3,9-20.6,16.6-36.8,4.4,3,9.1,4.6,14.1,4.6s4.5-.3,6.9-1c4.3-1.1,8.4-2.7,12.3-4.8,5.5-3,8.3-6.2,8.3-9.4s-2.8-5.2-8.5-5.2-9.5.8-16.9,2.4c-7.4,1.6-13.1,2.4-16.9,2.4s-9.1-1-11.8-2.9c-5.4-3.6-7.6-9.2-6.6-16.8,1.8-15.4,11.7-33.2,29.7-53.4,18.4-20.8,34.3-31.7,47.6-32.6,12.9-.8,19.3,8.9,19.3,29.1s-.3,10.3-1,16.4Z"/>
  <path class="st0" d="M836.2,79c15.9-5.3,29.4-7.9,40.5-7.9s22,3.3,28.5,9.8c9,9.3,13.5,20.6,13.5,33.9s-.6,10-1.9,15.4c-5.4,24.4-18.2,45.7-38.2,63.9-20.1,18.2-42.5,28.9-67.1,32.1.3-3,1.7-12.1,4.4-27.2l16.6-95.6c2.4-14.3,3.6-22.4,3.7-24.3ZM865.9,113.3c-6.4,27.2-11.2,52.9-14.5,77.1,8.3-7.9,15.7-17,22.2-27.4,8-12.7,12.1-23.7,12.1-32.8s-6.6-17.4-19.7-16.8Z"/>
  <path class="st0" d="M885.7,228.6c20.4-52,36.8-102,49.5-150.2l63.2-10.6c-7.2,42-10.5,91.6-9.8,149l-44.1,10.2,3.1-26-13.9,2.7-4.4,18.3-43.6,6.6ZM950.9,173l9.5-78.4h-.2l-19.5,80.4,10.2-2Z"/>
  <path class="st0" d="M1065.4,76.1l33.5,5.8c-29.9,52.5-53.6,100-71.1,142.6l-32-2.1,22-46.3-17.5-83.5,40.5-18.7c-.4,6.4-.7,14.3-.8,23.9-.1,9.6.3,19.1,1.5,28.7l23.9-50.3Z"/>
</svg>